<?xml version="1.0" encoding="UTF-8"?>
<svg id="a" data-name="Слой 1" xmlns="http://www.w3.org/2000/svg" viewBox="0 0 258.036 75.981">
  <defs>
    <style>
      .b {
        fill: #1a1a17;
      }

      .b, .c, .d, .e, .f, .g, .h, .i, .j, .k, .l, .m {
        stroke-width: 0px;
      }

      .c {
        fill: #262621;
      }

      .d {
        fill: #121210;
      }

      .e {
        fill: #1c1c18;
      }

      .f {
        fill: #605b54;
      }

      .g {
        fill: #3c3932;
      }

      .h {
        fill: #2c2b26;
      }

      .i {
        fill: #36342f;
      }

      .j {
        fill: #292823;
      }

      .k {
        fill: #0d0e0b;
      }

      .l {
        fill: #433f3a;
      }

      .m {
        fill: #20201a;
      }
    </style>
  </defs>
  <path class="b" d="m228.025,20.968h-2c-1.279.445-2.554.9-3.837,1.333-.715.241-1.441.446-2.163.667h-3c-2.695,1.596-7.277,2.282-9.995,1.474-.045-.013-.005-.31-.005-.474-1.496.085-.85,1.242-1,2v1.624c-1.749.512-3.527,1.033-6.095,1.785-.43.506-1.386,1.632-2.056,2.421-3.005.533-5.469,1.03-6.244,4.095-1.106.058-2.225.116-3.383.177-.123.569-.222,1.023-.366,1.69h-5.052c.514-1.294.948-2.385,1.451-3.651h2.651c3.563-2.908,5.001-6.587,6.475-10.13,1.573-3.779,4.823-6.23,6.825-9.629.209-.356,1.178-.265,1.795-.382.99-.823,2.318-1.456,2.909-2.504,2.195-3.893,5.245-7.132,7.802-10.74.093-.131-.091-.457-.154-.725h-2.392c-3.686,3.463-7.625,7.138-11.532,10.847-1.568,1.489-3.049,3.068-4.598,4.578-2.768,2.697-4.792,5.982-7.182,8.956-2.658,3.307-4.782,7.195-8.934,9.318-3.195,1.634-5.93,4.168-9.207,6.547-.236-.102-.478-.191-.714-.289-1.024.553-2.047,1.047-3.071,1.495.775.182,1.552.347,2.335.473,4.507.722,8.674,2.483,12.885,4.04,1.336-.822,2.665-1.651,3.906-2.568-.045-.043-.091-.079-.135-.124,2.884-1.795,5.743-3.67,8.693-5.389,4.555-2.653,9.101-5.342,13.796-7.729,2.312-1.176,5.077-1.449,7.417-2.585,5.74-2.788,11.877-3.784,18.088-4.627,1.054-.143,2.06-.64,3.088-.973v-1h-7Z"/>
  <path class="d" d="m171.078,45.148c-3.066-.709-6.08-1.568-9.078-2.471-1.777.711-3.554,1.427-5.331,2.3.041.01.084.02.122.031,3.705,1.026,7.364,2.219,11.061,3.272,2.143.61,4.302,1.185,6.494,1.764,1.011-.902,2.114-1.711,3.27-2.469-1.824-1.709-4.422-1.937-6.538-2.427Z"/>
  <path class="m" d="m155.025,45.968c0-.05.012-.084.016-.13-.087.049-.175.095-.262.145.082-.005.166-.015.246-.015Z"/>
  <path class="b" d="m56.025,39.968c-.085,1.496-1.242.849-2,1-.333.333-.667.667-1,1-.085,1.496-1.242.849-2,1-.237,1.861-1.814.585-2.424,1.319-.574.56-1.186,1.088-1.712,1.691-.074.084-.143.176-.213.266,2.296.485,4.712.974,7.135,1.89.076-.05.154-.095.23-.146.229-.154.651-.02.983-.02v-1.68c2.741-1.139,5.552-2.307,8.62-3.582.18.754.312,1.304.382,1.598-2.178.979-4.127,1.855-6.463,2.906,1.549.783,2.593,1.311,3.925,1.985.322-.759.601-1.414.946-2.228h4.59v-1.998c-.536-.442-1.072-.885-1.971-1.627.057-.021.113-.044.17-.065-2.135-1.598-4.84-2.62-7.656-3.384-.427.201-1.064-.019-1.543.076Z"/>
  <path class="b" d="m162.025,51.968c-1.333-.333-2.809-1.182-3.963-.865-1.339.368-2.59.986-4.037.865v2.305c1.405-.578,2.355-.968,3.354-1.38.493.461.964.901,1.541,1.439-2.793,2.277-6.284,2.54-10.087,3.805.41-1.007.54-1.672.913-2.146.38-.483.999-.778,2.123-1.602-1.703-.279-2.604-.426-3.844-.629v-1.792h-10v2c.085,1.496,1.242.849,2,1,.651-1.862,1.864-.836,3.02-.66-.142,2.87-2.134,2.684-4.02,2.66-2.511.333-5.014.794-7.536.964-2.472.166-4.97-.073-7.447.063-3.407.187-6.569-1.795-10.018-1.026-.941,0-1.9.103-2.817-.045-.434-.07-.791-.622-1.183-.955h-4c-.653.514-1.306,1.027-1.985,1.561.685.329,1.355.652,2.087,1.003-.156.52-.287.96-.492,1.645-1.089-.499-2.04-.934-3.054-1.398-.39.843-.705,1.526-1.009,2.182-1.7-.435-3.358-.86-5.272-1.35-.163-.34-.485-1.012-.928-1.937-.749.478-1.389.886-2.174,1.388-1.005-.497-2.091-1.033-3.173-1.568v-2.526c-1.061-1.49-2.905-1.283-4.336-1.977-1.169-.566-2.437-.928-4.199-1.579,4.337-1.237,7.759.702,11.334.885.574.029,1.136.656,1.691.637,4.966-.174,9.723,1.059,14.522,2.026.317.064.658.008.989.008h4c1.726.062,3.562-.424,4.884,1.078,1.996-1.176,3.859-1.951,5.83.03,2.743-1.595,5.594-1.685,8.71.038.509-.694,1.042-1.42,1.576-2.147-.427-.333-.845-.943-1.281-.955-2.978-.085-5.974-.236-8.937-.008-8.027.619-15.981-.586-23.91-1.236-5.987-.491-12.023-1.693-17.948-3.235-4.484-1.167-8.942-2.451-13.448-3.539-.782-.189-1.649-.027-2.477-.027v1.998h-4.59c-.346.814-.624,1.469-.946,2.228-1.332-.673-2.376-1.202-3.925-1.985,2.336-1.05,4.285-1.926,6.463-2.906-.07-.294-.202-.844-.382-1.598-3.068,1.275-5.878,2.443-8.62,3.582v1.68c.653,1.896,2.658,1.011,3.955,1.865,2.258,1.486,5.034,2.235,7.653,3.115,5.842,1.963,11.631,4.214,17.619,5.566,3.647.824,7.036,2.901,10.989,2.529.554-.052,1.202.899,1.819,1.395-4.54,4.478-8.671,9.222-14.239,12.164.335.706.467.984.655,1.379,2.006-.669,4.156-1.097,6.032-2.061,7.805-4.009,15.333-8.603,23.547-10.954,1.012.417,1.731.98,2.427.953,2.542-.098,5.013-.032,7.623-.751,3.09-.852,6.595-.2,9.92-.2v-2h-8.913v-1.667c7.952-.693,9.904-.594,12.468.62,1.139-1.114,2.083-2.684,4.445-1.643v2.69c4.646.297,9.136-.37,13.516-1.982,3.659-1.347,7.482-2.314,10.484-5.018v-1c-.984-.381-2.531.927-3-1Zm-97-2.25h-2v-.5h2v.5Zm16,.917h-1v-.333h1v.333Zm6.653,6.619c-1.341-.63-2.426-1.141-4.293-2.018,1.983-.136,3.219-.221,4.782-.328-.208,1.001-.324,1.554-.489,2.346Zm23.439,3.539v-1.45c2.001-1.25,3.223.617,4.689,1.45h-4.689Z"/>
  <path class="e" d="m51.496,39.064c-.082-.009-.174-.019-.258-.029,0,.077-.001.154-.001.249-2.19.547-4.082,1.994-6.164,3.355-.005.011-.01.022-.015.033-.017.004-.032.006-.049.01-1.176.766-2.427,1.485-3.817,2.013.882.365,1.802.664,2.757.914,1.883-1.535,4.355-2.327,6.2-4.202.467.831.672,1.196.878,1.562.758-.151,1.915.496,2-1,.333-.333.667-.667,1-1,.085-1.496,1.242-.849,2-1,.01-.184.038-.334.078-.458-1.247-.299-2.498-.556-3.719-.799-.297.118-.581.24-.888.354Z"/>
  <path class="e" d="m35.582,36.814c-2.115-1.453-4.156-.776-6.174-.781-4.864-.012-9.696-.201-14.593.79-4.771.965-9.554,1.534-13.791,4.145v1c3.838-.254,7.785.735,11.494-1,4.809.548,9.743-1.096,14.497.939.978.419,2.308-.069,3.442.096,1.208.176,2.369.655,3.562.959,2.031.519,4.071,1.006,6.996,1.724-.123.074-.243.141-.366.214.186-.061.36-.138.541-.207-.32-.132-.645-.256-.954-.41.309.154.634.278.954.41,1.39-.528,2.641-1.247,3.817-2.013-3.18.786-5.781.141-8.01-2.246,1.315-.434,2.594-.856,3.608-1.19,2.151.412,3.666.702,5.561,1.064-.392.833-.75,1.595-1.095,2.33,2.083-1.361,3.974-2.808,6.164-3.355,0-.094,0-.171.001-.249-2.583-.285-6.125-.676-9.677-1.067-1.742-1.99-4.411-.078-5.978-1.154Zm-10.335,2.212c-.017-.298-.033-.596-.05-.894h2.655c.016.174.031.349.047.523-.884.124-1.769.247-2.653.371Zm10.778.609h-1v-.333h1v.333Z"/>
  <path class="d" d="m155.04,45.838c.543-.304,1.086-.594,1.629-.861-.625-.161-1.547-.27-1.629.861Z"/>
  <path class="d" d="m167.853,48.28c-3.698-1.053-7.356-2.246-11.061-3.272-.038-.01-.081-.02-.122-.031-.543.267-1.086.557-1.629.861-.003.046-.015.08-.016.13-2.231,2.004-4.89,3.141-7.713,4.059-.88.286-1.531,1.274-2.287,1.941h3c.848.23,1.697.46,2.674.726.69-1.15,2.091-.646,3.326-.726,1.447.121,2.698-.497,4.037-.865,1.154-.317,2.629.532,3.963.865.984.381,2.531-.927,3,1v1c2.749-.413,4.938-2.318,7.474-2.683.155.052.306.106.46.158.435-.494.897-.961,1.388-1.399-2.192-.579-4.351-1.153-6.494-1.764Z"/>
  <path class="c" d="m235.025,21.968v-1c.201-2.096,2.411-.166,3.04-1.61-.064-.344-.148-.791-.282-1.513-2.108.744-4.063,1.433-6.018,2.123-1.169-.777-2.3-1.858-3.739-.476v1.476h-2c-.255-.333-.455-.885-.773-.964-2.001-.496-3.578.652-5.227,1.487v1.477h-3c-.392-.333-.749-.885-1.183-.955-.917-.148-1.876-.045-2.817-.045v-2c3.873-.679,7.637-1.766,11.596-2.242,3.025-.364,6.044-.585,9.078-.774.772-.048,1.525-.372,2.298-.44,1.893-.167,4.077-.891,5.609-.202,1.502.675,2.825.474,4.219.642,3.177.384,6.38.579,9.537,1.078.961.152,1.804,1.046,2.674,1.583-.06.38-.109.691-.214,1.355-3.043,0-6.181.26-9.258-.061-4.613-.482-8.998,1.141-13.54,1.061Z"/>
  <path class="i" d="m206.025,25.968v1.624c-1.749.512-3.527,1.033-6.095,1.785-.43.506-1.386,1.632-2.056,2.421-3.005.533-5.47,1.03-6.244,4.095-1.107.058-2.225.116-3.383.177-.123.569-.222,1.023-.366,1.69h-5.051c.514-1.294.948-2.385,1.451-3.651h2.651c3.563-2.908,5.001-6.587,6.475-10.13,1.572-3.779,4.823-6.23,6.825-9.629.21-.356,1.178-.265,1.795-.382-.347,3.23-2.724,5.332-4.328,7.869-.385.608-.456,1.415-.672,2.131-2.051,1.46-.605,3.29-1.005,5.45,3.593-1.666,6.491-3.542,10.005-3.45Z"/>
  <path class="k" d="m206.025,25.968c-3.513-.092-6.412,1.784-10.005,3.45.4-2.161-1.047-3.99,1.005-5.45,1.25-.054,2.332-.305,3.575-.852,2.616-1.152,5.595-1.481,8.425-2.148.161,1.552-.421,2.608-2,3-1.496.085-.849,1.242-1,2Z"/>
  <path class="c" d="m133.025,60.968h-8.912v-1.667c7.952-.693,9.903-.594,12.468.62,1.139-1.114,2.083-2.684,4.445-1.643v2.69c-.469,1.927-2.016.619-3,1-.398-.333-.772-.91-1.2-.954-1.255-.129-2.532-.046-3.8-.046Z"/>
  <path class="i" d="m207.025,23.968c1.579-.392,2.161-1.448,2-3h2c.667.333,1.333.667,2,1,.941,0,1.9-.103,2.817.045.434.07.791.622,1.183.955-2.695,1.596-7.277,2.282-9.994,1.474-.045-.013-.006-.31-.006-.474Z"/>
  <path class="k" d="m133.025,60.968c1.268,0,2.545-.083,3.8.046.428.044.802.621,1.2.954-1.471,1.314-3.272.973-5,1v-2Z"/>
  <path class="k" d="m213.025,21.968c-.667-.333-1.333-.667-2-1,.085-1.496,1.242-.849,2-1v2Z"/>
  <path class="f" d="m1.025,40.968v1c-.15.32-.299.641-.514,1.102-.647-1.093-.876-1.863.514-2.102Z"/>
  <path class="d" d="m167.287,41.923c-.782-.125-1.56-.291-2.335-.473-.984.43-1.969.833-2.953,1.227,2.998.903,6.013,1.762,9.078,2.471,2.115.489,4.713.717,6.538,2.427.839-.55,1.696-1.083,2.556-1.612-4.211-1.557-8.377-3.318-12.885-4.04Z"/>
  <path class="i" d="m228.025,20.968v-1.476c1.439-1.382,2.57-.302,3.739.476,1.955-.69,3.91-1.38,6.018-2.123.135.722.218,1.169.282,1.513-.629,1.444-2.839-.486-3.04,1.61h-7Z"/>
  <path class="i" d="m220.025,22.968v-1.477c1.648-.835,3.226-1.983,5.227-1.487.318.079.518.631.773.964-1.279.445-2.554.9-3.837,1.333-.715.241-1.441.446-2.163.667Z"/>
  <path class="l" d="m43.947,45.608c.887.232,1.796.439,2.73.636.07-.09.139-.181.213-.266.526-.603,1.137-1.13,1.712-1.691.609-.734,2.186.542,2.424-1.319-.206-.366-.411-.732-.878-1.562-1.845,1.875-4.318,2.667-6.2,4.202Z"/>
  <path class="l" d="m54.025,40.968c.758-.151,1.915.496,2-1-.758.151-1.915-.496-2,1Z"/>
  <path class="l" d="m58.025,38.968c-.665.132-1.636-.348-1.922.542.491.118.979.25,1.465.382.248-.117.425-.374.457-.924Z"/>
  <path class="l" d="m56.103,39.51c-.04.125-.068.275-.078.458.479-.095,1.117.125,1.543-.076-.487-.132-.974-.265-1.465-.382Z"/>
  <path class="l" d="m53.025,41.968c.333-.333.667-.667,1-1-.333.333-.667.667-1,1Z"/>
  <path class="g" d="m135.025,53.968h3c.085,1.496,1.242.849,2,1-.333.667-.667,1.333-1,2-2.511.333-5.013.794-7.535.964-2.472.166-4.971-.073-7.447.063-3.407.187-6.569-1.795-10.018-1.027v-2c1.726.062,3.562-.424,4.884,1.078,1.996-1.176,3.859-1.951,5.831.03,2.743-1.595,5.594-1.685,8.71.038.509-.694,1.042-1.42,1.575-2.147Z"/>
  <path class="h" d="m106.025,55.968c-.653.514-1.306,1.027-1.985,1.561.685.329,1.355.651,2.087,1.003-.156.52-.287.96-.492,1.645-1.089-.499-2.04-.934-3.054-1.398-.39.843-.705,1.526-1.009,2.182-1.7-.435-3.358-.86-5.272-1.35-.163-.34-.485-1.012-.928-1.937-.749.478-1.389.886-2.174,1.388-1.005-.497-2.091-1.033-3.173-1.568v-2.526c2.343.21,4.843-.675,6.829.884,1.317-.316,3.066-1.227,3.57-.769,1.805,1.641,3.78.485,5.601.885Z"/>
  <path class="l" d="m106.025,55.968c-1.821-.4-3.796.755-5.601-.885-.504-.458-2.253.453-3.57.769-1.986-1.558-4.486-.674-6.829-.884-1.061-1.49-2.905-1.283-4.336-1.977-1.169-.566-2.437-.928-4.199-1.579,4.337-1.237,7.759.702,11.334.885.574.029,1.136.656,1.691.637,4.966-.174,9.723,1.059,14.522,2.026.317.064.658.008.988.008v1h-4Z"/>
  <path class="c" d="m148.025,51.968c.848.23,1.697.46,2.674.726.69-1.15,2.091-.646,3.326-.726v2.305c1.405-.578,2.355-.968,3.355-1.38.493.461.964.901,1.541,1.439-2.794,2.277-6.284,2.54-10.087,3.805.41-1.007.54-1.672.913-2.146.38-.483.999-.778,2.123-1.602-1.703-.279-2.604-.426-3.844-.629v-1.792Z"/>
  <path class="c" d="m139.025,56.968c.333-.667.667-1.333,1-2,.651-1.862,1.864-.836,3.02-.66-.142,2.87-2.134,2.684-4.02,2.66Z"/>
  <path class="h" d="m115.805,60.792h-4.689v-1.45c2.001-1.25,3.223.617,4.689,1.45Z"/>
  <path class="h" d="m110.025,55.968v-1h4v2c-.941,0-1.9.103-2.817-.045-.434-.07-.791-.622-1.183-.955Z"/>
  <path class="h" d="m88.167,54.908c-.209,1.001-.324,1.554-.489,2.346-1.341-.63-2.426-1.141-4.293-2.018,1.983-.136,3.219-.221,4.782-.328Z"/>
  <path class="c" d="m162.025,51.968c.984.381,2.531-.927,3,1-.984-.381-2.531.927-3-1Z"/>
  <path class="m" d="m65.025,49.718h-2v-.5h2v.5Z"/>
  <path class="l" d="m81.025,50.635h-1v-.333h1v.333Z"/>
  <path class="j" d="m46.166,40.309c-1.895-.363-3.41-.653-5.561-1.064-1.013.334-2.292.756-3.608,1.19,2.229,2.387,4.83,3.031,8.01,2.246.021-.014.042-.028.064-.042.345-.735.703-1.496,1.095-2.33Z"/>
  <path class="j" d="m45.072,42.639c-.022.014-.043.028-.064.042.017-.004.032-.005.049-.01.005-.011.01-.022.015-.033Z"/>
  <path class="j" d="m25.197,38.132h2.655c.016.174.032.349.047.523-.884.124-1.769.247-2.653.371-.017-.298-.033-.596-.05-.894Z"/>
  <path class="j" d="m35.025,39.301h1v.333h-1v-.333Z"/>
</svg>